<svg width="80" height="80" viewBox="0 0 80 80" fill="none" xmlns="http://www.w3.org/2000/svg">
<path d="M77.35 39.15C74.4096 31.5441 69.305 24.9665 62.667 20.2302C56.029 15.4939 48.1487 12.8064 40 12.5C31.8513 12.8064 23.971 15.4939 17.333 20.2302C10.695 24.9665 5.5904 31.5441 2.65 39.15C2.45142 39.6993 2.45142 40.3007 2.65 40.85C5.5904 48.4559 10.695 55.0335 17.333 59.7698C23.971 64.5061 31.8513 67.1936 40 67.5C48.1487 67.1936 56.029 64.5061 62.667 59.7698C69.305 55.0335 74.4096 48.4559 77.35 40.85C77.5486 40.3007 77.5486 39.6993 77.35 39.15V39.15Z" fill="white"/>
<path d="M40 62.5C26.75 62.5 12.75 52.675 7.675 40C12.75 27.325 26.75 17.5 40 17.5C53.25 17.5 67.25 27.325 72.325 40C67.25 52.675 53.25 62.5 40 62.5Z" fill="black"/>
<path d="M40 25C37.0333 25 34.1332 25.8797 31.6665 27.528C29.1997 29.1762 27.2771 31.5189 26.1418 34.2597C25.0065 37.0006 24.7094 40.0166 25.2882 42.9264C25.867 45.8361 27.2956 48.5088 29.3934 50.6066C31.4912 52.7044 34.1639 54.133 37.0737 54.7118C39.9834 55.2906 42.9994 54.9935 45.7403 53.8582C48.4811 52.7229 50.8238 50.8003 52.472 48.3336C54.1203 45.8668 55 42.9667 55 40C55 36.0218 53.4197 32.2064 50.6066 29.3934C47.7936 26.5804 43.9783 25 40 25ZM40 50C38.0222 50 36.0888 49.4135 34.4443 48.3147C32.7998 47.2159 31.5181 45.6541 30.7612 43.8268C30.0043 41.9996 29.8063 39.9889 30.1922 38.0491C30.578 36.1093 31.5304 34.3275 32.9289 32.9289C34.3275 31.5304 36.1093 30.578 38.0491 30.1921C39.9889 29.8063 41.9996 30.0043 43.8268 30.7612C45.6541 31.5181 47.2159 32.7998 48.3147 34.4443C49.4135 36.0888 50 38.0222 50 40C50 42.6522 48.9464 45.1957 47.0711 47.0711C45.1957 48.9464 42.6522 50 40 50Z" fill="white"/>
</svg>
